<?xml version="1.0" standalone="no"?>
<!DOCTYPE svg PUBLIC "-//W3C//DTD SVG 1.1//EN" "http://www.w3.org/Graphics/SVG/1.1/DTD/svg11.dtd">
<svg t="1600938193340" class="icon" viewBox="0 0 1024 1024" version="1.1" xmlns="http://www.w3.org/2000/svg" p-id="2857" xmlns:xlink="http://www.w3.org/1999/xlink" width="200" height="200">
<defs>
<style type="text/css">
</style>
</defs>
  <path d="M1024 448v128h-133.6a383.392 383.392 0 0 1-65.632 158.272l88.384 88.352-90.528 90.528-88.352-88.384A383.392 383.392 0 0 1 576 890.4V1024h-128v-133.6a382.688 382.688 0 0 1-158.72-65.984L185.6 928 96 838.4l103.712-103.712a382.688 382.688 0 0 1-65.984-158.72H0v-128h133.6a382.688 382.688 0 0 1 65.984-158.72L96 185.6 185.6 96l103.712 103.712a382.688 382.688 0 0 1 158.72-65.984V0h128v133.6a382.688 382.688 0 0 1 158.72 65.984L838.4 96 928 185.6l-103.712 103.712a382.688 382.688 0 0 1 65.984 158.72H1024zM512 256a256 256 0 1 0 256 256 256 256 0 0 0-256-256z m0 320a64 64 0 1 1 64-64 64 64 0 0 1-64 64z" p-id="2858" fill="#ff8198">
  </path>
</svg>