<?xml version="1.0" standalone="no"?><!DOCTYPE svg PUBLIC "-//W3C//DTD SVG 1.1//EN" "http://www.w3.org/Graphics/SVG/1.1/DTD/svg11.dtd"><svg t="1600604873014" class="icon" viewBox="0 0 1024 1024" version="1.1" xmlns="http://www.w3.org/2000/svg" p-id="686" xmlns:xlink="http://www.w3.org/1999/xlink" width="200" height="200"><defs><style type="text/css"></style></defs><path d="M802.133333 288c10.666667-12.8 10.666667-29.866667 0-42.666667s-29.866667-10.666667-42.666666 0c-10.666667 10.666667-10.666667 29.866667 0 40.533334 10.666667 14.933333 29.866667 14.933333 42.666666 2.133333z m89.6 206.933333c-23.466667 0-42.666667 19.2-42.666666 42.666667s19.2 40.533333 42.666666 40.533333 42.666667-19.2 42.666667-40.533333c0-25.6-19.2-42.666667-42.666667-42.666667zM746.666667 763.733333c-21.333333 21.333333-19.2 55.466667 2.133333 74.666667s55.466667 19.2 74.666667-2.133333 19.2-55.466667-2.133334-74.666667c-21.333333-21.333333-53.333333-19.2-74.666666 2.133333z m-234.666667 87.466667c-36.266667 0-66.133333 29.866667-66.133333 66.133333s29.866667 64 66.133333 64 66.133333-29.866667 66.133333-66.133333-29.866667-64-66.133333-64zM187.733333 750.933333c-29.866667 29.866667-29.866667 78.933333 0 108.8s78.933333 29.866667 108.8 0c29.866667-29.866667 29.866667-78.933333 0-108.8-29.866667-32-76.8-32-108.8 0z m34.133334-213.333333c0-49.066667-40.533333-89.6-89.6-89.6C83.2 448 42.666667 488.533333 42.666667 537.6s40.533333 89.6 89.6 89.6c49.066667-2.133333 89.6-40.533333 89.6-89.6 0-2.133333 0-2.133333 0 0zM170.666667 196.266667C132.266667 234.666667 132.266667 298.666667 170.666667 337.066667s102.4 38.4 142.933333 0c38.4-38.4 38.4-102.4 0-142.933334-38.4-38.4-102.4-38.4-142.933333 2.133334zM512 42.666667c-61.866667 0-113.066667 51.2-113.066667 113.066666s51.2 113.066667 113.066667 113.066667 113.066667-51.2 113.066667-113.066667S573.866667 42.666667 512 42.666667z" p-id="687"></path></svg>